<?xml version="1.0" standalone="no"?>
<!DOCTYPE svg PUBLIC "-//W3C//DTD SVG 20010904//EN"
 "http://www.w3.org/TR/2001/REC-SVG-20010904/DTD/svg10.dtd">
<svg version="1.0" xmlns="http://www.w3.org/2000/svg"
 width="996.000000pt" height="792.000000pt" viewBox="0 0 996.000000 792.000000"
 preserveAspectRatio="xMidYMid meet">

<g transform="translate(0.000000,792.000000) scale(0.100000,-0.100000)"
fill="#000000" stroke="none">
<path d="M5693 7709 c-121 -20 -228 -79 -353 -195 -41 -38 -113 -103 -160
-144 -47 -41 -87 -77 -90 -80 -63 -64 -382 -337 -418 -359 -68 -40 -102 -48
-278 -66 -851 -89 -1659 -307 -2449 -660 -328 -147 -986 -476 -1280 -640 -22
-12 -111 -62 -198 -110 -155 -86 -186 -109 -257 -190 -72 -83 -80 -99 -69
-139 11 -41 15 -42 139 -50 142 -8 355 -86 509 -186 168 -109 442 -367 456
-429 9 -42 -2 -54 -99 -104 -76 -39 -86 -42 -161 -41 -201 1 -506 106 -710
243 -71 48 -90 50 -108 14 -47 -92 -41 -219 11 -267 92 -84 262 -212 321 -241
45 -23 194 -66 361 -105 41 -10 125 -29 186 -44 112 -26 556 -113 719 -140
476 -81 1119 -150 1640 -176 116 -6 233 -13 260 -15 96 -10 1191 -14 1365 -5
96 4 243 11 325 15 158 6 418 26 674 50 l155 15 56 -49 c202 -176 494 -347
745 -438 76 -27 101 -43 69 -43 -65 0 -336 -90 -454 -150 -53 -27 -54 -30 -26
-140 22 -86 93 -254 134 -320 79 -125 218 -283 327 -373 71 -58 177 -121 329
-196 216 -107 407 -218 535 -312 184 -134 354 -349 436 -549 15 -36 31 -74 36
-85 5 -11 22 -70 38 -131 56 -208 106 -323 207 -476 52 -78 119 -141 229 -217
114 -79 196 -94 296 -53 40 16 96 91 125 168 75 198 161 461 209 641 100 370
276 1088 309 1258 72 374 91 806 50 1190 -65 617 -305 1223 -687 1741 -359
484 -794 845 -1305 1080 l-116 53 128 61 c168 80 166 77 93 223 -84 169 -185
335 -347 572 -81 118 -180 198 -360 293 -315 166 -652 267 -999 302 -122 12
-474 11 -548 -1z m-538 -1264 c130 -5 230 -14 460 -40 544 -62 1212 -236 1723
-449 258 -108 550 -247 564 -270 15 -23 8 -65 -14 -80 -35 -25 -60 -20 -211
40 -753 298 -1462 465 -2302 541 -270 25 -1002 25 -1265 0 -524 -49 -948 -122
-1375 -236 -104 -28 -204 -51 -222 -51 -53 0 -101 76 -75 118 24 37 586 211
892 276 645 138 1133 178 1825 151z m-2345 -762 c67 -19 174 -87 230 -144 47
-49 100 -140 132 -225 18 -50 22 -81 22 -199 1 -122 -2 -147 -21 -198 -65
-167 -129 -246 -281 -348 -129 -86 -275 -167 -401 -221 -47 -20 -91 -44 -97
-52 -6 -9 -14 -42 -18 -73 -11 -93 -15 -102 -65 -131 l-46 -27 -295 1 c-295 1
-418 12 -645 55 -62 12 -96 29 -58 29 64 0 210 79 279 152 69 71 88 119 89
218 0 73 -4 94 -28 145 l-28 60 33 -30 c58 -53 67 -63 61 -69 -4 -3 1 -6 11
-6 11 0 27 -20 44 -57 25 -53 27 -69 27 -178 l0 -120 49 -3 c186 -12 509 103
632 224 63 63 118 170 139 272 37 179 11 283 -156 630 l-71 147 29 22 c44 36
181 105 258 129 73 23 84 23 175 -3z m-1470 -183 c43 -22 81 -67 105 -123 57
-136 -60 -297 -215 -297 -132 0 -245 149 -210 276 31 109 126 180 228 169 30
-3 71 -14 92 -25z m3226 -449 c158 -46 260 -203 235 -363 -20 -125 -118 -273
-230 -351 -25 -17 -188 -90 -361 -162 -260 -107 -316 -134 -318 -151 -2 -11 3
-26 10 -31 7 -6 72 -14 143 -18 72 -4 202 -10 290 -15 208 -10 789 -5 930 9
181 18 204 21 365 47 164 26 453 63 685 88 77 9 181 20 230 26 50 5 146 14
215 20 69 6 150 12 180 15 220 20 621 44 659 40 25 -3 170 -21 321 -41 303
-39 287 -34 505 -152 232 -126 331 -184 347 -203 10 -11 63 -96 118 -189 55
-92 108 -171 116 -174 18 -7 76 24 169 90 83 58 116 95 174 193 28 46 51 80
51 75 0 -25 -75 -216 -103 -262 -17 -29 -79 -100 -138 -157 -112 -111 -134
-121 -186 -92 -35 20 -112 128 -223 318 -51 86 -81 126 -108 143 -68 44 -421
234 -454 245 -18 5 -100 19 -183 30 -360 47 -430 54 -530 48 -666 -42 -1204
-93 -1645 -158 -547 -80 -569 -81 -1030 -84 -458 -3 -861 12 -1360 51 -102 8
-275 21 -385 30 -203 15 -445 40 -451 47 -7 7 61 105 107 155 50 55 201 176
315 253 121 81 430 265 639 379 175 96 226 123 380 201 201 102 267 121 395
114 52 -2 109 -9 126 -14z m3326 -1315 c165 -26 375 -82 463 -124 58 -28 104
-60 155 -108 73 -69 164 -190 154 -206 -3 -4 -49 -8 -102 -8 -53 0 -155 -4
-227 -9 -71 -6 -184 -13 -250 -16 -250 -12 -415 -29 -518 -52 -38 -8 -70 -13
-71 -11 -2 1 -6 71 -9 153 -7 183 -31 266 -103 362 -17 23 -20 33 -11 37 23
11 422 -3 519 -18z"/>
</g>
</svg>
